# ProBuilder 4.0.4
# https://unity3d.com/unity/features/worldbuilding/probuilder
# 4/27/2019 4:46:01 PM

mtllib ./Wall4.mtl
o Wall4

g Cube (13)
v -30.05162 1.646688 33.17188
v -85.66522 1.646688 33.17188
v -30.05162 11.33759 33.17188
v -85.66522 11.33759 33.17188
v -85.66522 1.646688 32.65187
v -85.66522 11.33759 32.65187
v -30.05162 1.646688 32.65187
v -30.05162 11.33759 32.65187

vt 0 0
vt -1 0
vt 0 1
vt -1 1
vt 1 0
vt 1 1
vt 0 -1
vt 1 -1
vt -1 -1

vn 0 0 0.52
vn -55.61359 0 0
vn 0 0 -0.52
vn 55.61359 0 0
vn 0 9.690907 0
vn 0 -9.690907 0

g Cube (13)
usemtl Wall_Material
f 3/3/1 4/4/1 2/2/1 1/1/1
f 4/3/2 6/4/2 5/2/2 2/1/2
f 6/6/3 8/3/3 7/1/3 5/5/3
f 8/6/4 3/3/4 1/1/4 7/5/4
f 8/7/5 6/8/5 4/5/5 3/1/5
f 1/1/6 2/2/6 5/9/6 7/7/6

