# ProBuilder 4.0.4
# https://unity3d.com/unity/features/worldbuilding/probuilder
# 4/27/2019 4:41:38 PM

mtllib ./Wall3.mtl
o Wall3

g Cube (12)
v -32.91563 1.646688 33.22847
v -32.91562 1.646688 0.2488747
v -32.91563 11.33759 33.22847
v -32.91562 11.33759 0.2488747
v -32.39562 1.646688 0.2488747
v -32.39562 11.33759 0.2488747
v -32.39563 1.646688 33.22847
v -32.39563 11.33759 33.22847

vt 0 0
vt -1 0
vt 0 1
vt -1 1
vt 1 0
vt 1 1
vt 0 -1
vt 1 -1
vt -1 -1

vn -0.5200005 0 -6.198889E-08
vn 3.931474E-06 0 -32.9796
vn 0.5200005 0 6.198889E-08
vn -3.931474E-06 0 32.9796
vn 0 9.690907 0
vn 0 -9.690907 0

g Cube (12)
usemtl Wall_Material
f 3/3/1 4/4/1 2/2/1 1/1/1
f 4/3/2 6/4/2 5/2/2 2/1/2
f 6/6/3 8/3/3 7/1/3 5/5/3
f 8/6/4 3/3/4 1/1/4 7/5/4
f 8/7/5 6/8/5 4/5/5 3/1/5
f 1/1/6 2/2/6 5/9/6 7/7/6

