# ProBuilder 4.0.4
# https://unity3d.com/unity/features/worldbuilding/probuilder
# 27/04/2019 19:07:35

mtllib ./Computer-Merged.mtl
o Computer-Merged

g Computer-Merged
v 1748.782 209.202 103.426
v 1747.31 209.202 103.1398
v 1748.782 209.302 103.426
v 1747.31 209.302 103.1398
v 1747.5 209.202 102.1582
v 1747.5 209.302 102.1582
v 1748.973 209.202 102.4444
v 1748.973 209.302 102.4444
v 1748.908 209.479 102.721
v 1748.834 209.479 102.7067
v 1748.902 209.479 102.7505
v 1748.829 209.479 102.7361
v 1748.834 210.479 102.7067
v 1748.829 210.479 102.7361
v 1748.908 210.479 102.721
v 1748.902 210.479 102.7505
v 1748.927 209.479 102.622
v 1747.455 209.479 102.3358
v 1748.908 209.479 102.7202
v 1747.435 209.479 102.434
v 1747.455 210.479 102.3358
v 1747.435 210.479 102.434
v 1748.927 210.479 102.622
v 1748.908 210.479 102.7202
v 1748.202 209.271 102.582
v 1748.104 209.271 102.5629
v 1748.202 209.521 102.582
v 1748.104 209.521 102.5629
v 1748.123 209.271 102.4648
v 1748.123 209.521 102.4648
v 1748.221 209.271 102.4838
v 1748.221 209.521 102.4838
v 1747.507 209.479 102.45
v 1747.433 209.479 102.4357
v 1747.501 209.479 102.4794
v 1747.428 209.479 102.4651
v 1747.433 210.479 102.4357
v 1747.428 210.479 102.4651
v 1747.507 210.479 102.45
v 1747.501 210.479 102.4794
v 1747.442 210.398 102.437
v 1747.442 210.473 102.437
v 1747.436 210.398 102.4664
v 1747.436 210.473 102.4664
v 1748.865 210.473 102.7137
v 1748.86 210.473 102.7431
v 1748.865 210.398 102.7137
v 1748.86 210.398 102.7431
v 1747.442 209.483 102.437
v 1747.442 209.558 102.437
v 1747.436 209.483 102.4664
v 1747.436 209.558 102.4664
v 1748.865 209.558 102.7137
v 1748.86 209.558 102.7431
v 1748.865 209.483 102.7137
v 1748.86 209.483 102.7431

vt 0 0
vt -1.5 0
vt 0 0.1
vt -1.5 0.1
vt -1 0
vt -1 0.1
vt 1.5 0
vt 1.5 0.1
vt 1 0
vt 1 0.1
vt 1.499999 2.980232E-06
vt 2.145767E-06 -1.00001
vt 1.500013 -0.9999974
vt -1.500009 -0.9999985
vt -1.500001 -3.33786E-06
vt -0.03064632 -0.1576101
vt -1.412871 -0.01694171
vt -0.08712912 0.1169417
vt -1.469354 0.2576101
vt 1.412871 -0.01694173
vt 0.03064632 -0.1576101
vt 1.469354 0.2576101
vt 0.08712912 0.1169417
vt 1.132488E-06 -0.9999999
vt 1.500001 -1
vt -1.499999 -0.9999999
vt 3.85046E-05 0.09999251
vt 1.499999 0.1000068
vt -0.9999998 0
vt 2.384186E-07 1
vt -0.9999998 1
vt -1 1
vt 1 1
vt 0.9999952 2.43783E-05
vt 1.000314 -0.999939
vt -1.000314 -0.999939
vt -1.5 0.1000001
vt 0.01478678 0.002874285
vt -1.013426 0.06907009
vt 0.01342601 0.03092989
vt -1.014787 0.09712571
vt 1.5 0.09999996
vt 1.013426 0.06907012
vt -0.01478678 0.00287427
vt 1.014787 0.09712572
vt -0.01342601 0.03092988
vt -1.5 -1

vn -0.1908146 0 0.9816261
vn -0.9816294 0 -0.1907976
vn 0.1908097 0 -0.981627
vn 0.9816297 0 0.1907961
vn 0 1 0
vn 0 -1 0
vn -0.9815465 0 -0.1912236
vn 0.9815465 0 0.1912236
vn -0.981471 0 -0.1916107
vn 0.9816971 0 0.1904489
vn -0.9816971 0 -0.1904489

g Computer-Merged
usemtl ProBuilderDefault
f 3/3/1 4/4/1 2/2/1 1/1/1
f 4/3/2 6/6/2 5/5/2 2/1/2
f 6/8/3 8/3/3 7/1/3 5/7/3
f 8/10/4 3/3/4 1/1/4 7/9/4
f 8/12/5 6/13/5 4/11/5 3/1/5
f 1/1/6 2/15/6 5/14/6 7/12/6
f 11/18/6 12/19/6 10/17/6 9/16/6
f 12/3/7 14/6/7 13/5/7 10/1/7
f 14/22/5 16/23/5 15/21/5 13/20/5
f 16/10/8 11/3/8 9/1/8 15/9/8
f 16/24/1 14/25/1 12/7/1 11/1/1
f 9/1/3 10/2/3 13/26/3 15/12/3
f 19/27/6 20/4/6 18/2/6 17/1/6
f 20/3/9 22/6/9 21/5/9 18/1/9
f 22/28/5 24/27/5 23/1/5 21/11/5
f 24/10/10 19/3/10 17/1/10 23/9/10
f 24/24/1 22/25/1 20/7/1 19/1/1
f 17/1/3 18/15/3 21/14/3 23/12/3
f 27/30/1 28/31/1 26/29/1 25/1/1
f 28/30/11 30/32/11 29/5/11 26/1/11
f 30/33/3 32/30/3 31/1/3 29/9/3
f 32/33/10 27/30/10 25/1/10 31/9/10
f 32/12/5 30/35/5 28/34/5 27/1/5
f 25/1/6 26/29/6 29/36/6 31/12/6
f 35/18/6 36/19/6 34/17/6 33/16/6
f 36/3/7 38/6/7 37/5/7 34/1/7
f 38/22/5 40/23/5 39/21/5 37/20/5
f 40/10/8 35/3/8 33/1/8 39/9/8
f 40/24/1 38/25/1 36/7/1 35/1/1
f 33/1/3 34/15/3 37/14/3 39/12/3
f 43/27/7 44/37/7 42/15/7 41/1/7
f 44/40/5 46/41/5 45/39/5 42/38/5
f 46/42/8 48/3/8 47/1/8 45/7/8
f 48/45/6 43/46/6 41/44/6 47/43/6
f 48/12/1 46/25/1 44/7/1 43/1/1
f 41/1/3 42/15/3 45/47/3 47/12/3
f 51/3/7 52/37/7 50/15/7 49/1/7
f 52/40/5 54/41/5 53/39/5 50/38/5
f 54/42/8 56/3/8 55/1/8 53/7/8
f 56/45/6 51/46/6 49/44/6 55/43/6
f 56/12/1 54/25/1 52/7/1 51/1/1
f 49/1/3 50/15/3 53/47/3 55/12/3

