# ProBuilder 4.0.4
# https://unity3d.com/unity/features/worldbuilding/probuilder
# 27/04/2019 19:07:42

mtllib ./Keyboard-Merged.mtl
o Keyboard-Merged

g Keyboard-Merged
v 1747.822 209.304 103.767
v 1747.773 209.304 103.7575
v 1747.822 209.354 103.767
v 1747.773 209.354 103.7575
v 1747.782 209.304 103.7084
v 1747.782 209.354 103.7084
v 1747.832 209.304 103.7179
v 1747.832 209.354 103.7179
v 1747.524 209.304 103.89
v 1747.475 209.304 103.8805
v 1747.524 209.354 103.89
v 1747.475 209.354 103.8805
v 1747.484 209.304 103.8314
v 1747.484 209.354 103.8314
v 1747.534 209.304 103.8409
v 1747.534 209.354 103.8409
v 1748.126 209.304 103.826
v 1748.077 209.304 103.8165
v 1748.126 209.354 103.826
v 1748.077 209.354 103.8165
v 1748.086 209.304 103.7674
v 1748.086 209.354 103.7674
v 1748.135 209.304 103.7769
v 1748.135 209.354 103.7769
v 1748.369 209.304 104.194
v 1748.32 209.304 104.1845
v 1748.369 209.354 104.194
v 1748.32 209.354 104.1845
v 1748.329 209.304 104.1354
v 1748.329 209.354 104.1354
v 1748.379 209.304 104.1449
v 1748.379 209.354 104.1449
v 1748.054 209.304 103.993
v 1748.005 209.304 103.9835
v 1748.054 209.354 103.993
v 1748.005 209.354 103.9835
v 1748.014 209.304 103.9344
v 1748.014 209.354 103.9344
v 1748.063 209.304 103.9439
v 1748.063 209.354 103.9439
v 1748.459 209.304 104.134
v 1748.41 209.304 104.1245
v 1748.459 209.354 104.134
v 1748.41 209.354 104.1245
v 1748.419 209.304 104.0754
v 1748.419 209.354 104.0754
v 1748.469 209.304 104.0849
v 1748.469 209.354 104.0849
v 1748.056 209.304 104.113
v 1747.467 209.304 103.9985
v 1748.056 209.354 104.113
v 1747.467 209.354 103.9985
v 1747.479 209.304 103.9396
v 1747.479 209.354 103.9396
v 1748.068 209.304 104.0541
v 1748.068 209.354 104.0541
v 1747.414 209.304 103.955
v 1747.365 209.304 103.9455
v 1747.414 209.354 103.955
v 1747.365 209.354 103.9455
v 1747.374 209.304 103.8964
v 1747.374 209.354 103.8964
v 1747.423 209.304 103.9059
v 1747.423 209.354 103.9059
v 1748.061 209.304 103.908
v 1748.012 209.304 103.8985
v 1748.061 209.354 103.908
v 1748.012 209.354 103.8985
v 1748.021 209.304 103.8494
v 1748.021 209.354 103.8494
v 1748.071 209.304 103.8589
v 1748.071 209.354 103.8589
v 1748.231 209.304 103.847
v 1748.182 209.304 103.8375
v 1748.231 209.354 103.847
v 1748.182 209.354 103.8375
v 1748.191 209.304 103.7884
v 1748.191 209.354 103.7884
v 1748.24 209.304 103.7979
v 1748.24 209.354 103.7979
v 1747.742 209.304 103.932
v 1747.693 209.304 103.9225
v 1747.742 209.354 103.932
v 1747.693 209.354 103.9225
v 1747.702 209.304 103.8734
v 1747.702 209.354 103.8734
v 1747.751 209.304 103.8829
v 1747.751 209.354 103.8829
v 1747.619 209.304 103.727
v 1747.57 209.304 103.7175
v 1747.619 209.354 103.727
v 1747.57 209.354 103.7175
v 1747.579 209.304 103.6684
v 1747.579 209.354 103.6684
v 1747.629 209.304 103.6779
v 1747.629 209.354 103.6779
v 1747.725 209.304 103.748
v 1747.676 209.304 103.7385
v 1747.725 209.354 103.748
v 1747.676 209.354 103.7385
v 1747.685 209.304 103.6894
v 1747.685 209.354 103.6894
v 1747.734 209.304 103.6989
v 1747.734 209.354 103.6989
v 1748.15 209.304 103.925
v 1748.101 209.304 103.9155
v 1748.15 209.354 103.925
v 1748.101 209.354 103.9155
v 1748.11 209.304 103.8664
v 1748.11 209.354 103.8664
v 1748.16 209.304 103.8759
v 1748.16 209.354 103.8759
v 1747.833 209.304 103.864
v 1747.784 209.304 103.8545
v 1747.833 209.354 103.864
v 1747.784 209.354 103.8545
v 1747.793 209.304 103.8054
v 1747.793 209.354 103.8054
v 1747.843 209.304 103.8149
v 1747.843 209.354 103.8149
v 1748.424 209.304 103.99
v 1748.345 209.304 103.9747
v 1748.424 209.354 103.99
v 1748.345 209.354 103.9747
v 1748.365 209.304 103.8766
v 1748.365 209.354 103.8766
v 1748.443 209.304 103.8918
v 1748.443 209.354 103.8918
v 1748.222 209.304 104.118
v 1748.173 209.304 104.1085
v 1748.222 209.354 104.118
v 1748.173 209.354 104.1085
v 1748.182 209.304 104.0594
v 1748.182 209.354 104.0594
v 1748.232 209.304 104.0689
v 1748.232 209.354 104.0689
v 1748.242 209.304 103.943
v 1748.193 209.304 103.9335
v 1748.242 209.354 103.943
v 1748.193 209.354 103.9335
v 1748.202 209.304 103.8844
v 1748.202 209.354 103.8844
v 1748.251 209.304 103.8939
v 1748.251 209.354 103.8939
v 1748.588 209.163 104.313
v 1747.116 209.163 104.0268
v 1748.588 209.313 104.313
v 1747.116 209.313 104.0268
v 1747.22 209.163 103.4869
v 1747.22 209.313 103.4869
v 1748.693 209.163 103.7731
v 1748.693 209.313 103.7731
v 1747.631 209.304 103.911
v 1747.582 209.304 103.9015
v 1747.631 209.354 103.911
v 1747.582 209.354 103.9015
v 1747.591 209.304 103.8524
v 1747.591 209.354 103.8524
v 1747.641 209.304 103.8619
v 1747.641 209.354 103.8619
v 1747.407 209.304 103.7809
v 1747.358 209.304 103.7714
v 1747.407 209.354 103.7809
v 1747.358 209.354 103.7714
v 1747.367 209.304 103.7223
v 1747.367 209.354 103.7223
v 1747.416 209.304 103.7318
v 1747.416 209.354 103.7318
v 1747.399 209.304 103.685
v 1747.35 209.304 103.6755
v 1747.399 209.354 103.685
v 1747.35 209.354 103.6755
v 1747.359 209.304 103.6264
v 1747.359 209.354 103.6264
v 1747.409 209.304 103.6359
v 1747.409 209.354 103.6359
v 1747.948 209.304 103.792
v 1747.899 209.304 103.7825
v 1747.948 209.354 103.792
v 1747.899 209.354 103.7825
v 1747.908 209.304 103.7334
v 1747.908 209.354 103.7334
v 1747.958 209.304 103.7429
v 1747.958 209.354 103.7429
v 1747.725 209.304 103.843
v 1747.676 209.304 103.8335
v 1747.725 209.354 103.843
v 1747.676 209.354 103.8335
v 1747.685 209.304 103.7844
v 1747.685 209.354 103.7844
v 1747.734 209.304 103.7939
v 1747.734 209.354 103.7939
v 1748.039 209.304 103.809
v 1747.99 209.304 103.7995
v 1748.039 209.354 103.809
v 1747.99 209.354 103.7995
v 1747.999 209.304 103.7504
v 1747.999 209.354 103.7504
v 1748.048 209.304 103.7599
v 1748.048 209.354 103.7599
v 1747.606 209.304 103.82
v 1747.557 209.304 103.8105
v 1747.606 209.354 103.82
v 1747.557 209.354 103.8105
v 1747.566 209.304 103.7614
v 1747.566 209.354 103.7614
v 1747.615 209.304 103.7709
v 1747.615 209.354 103.7709
v 1747.424 209.304 103.87
v 1747.375 209.304 103.8605
v 1747.424 209.354 103.87
v 1747.375 209.354 103.8605
v 1747.384 209.304 103.8114
v 1747.384 209.354 103.8114
v 1747.433 209.304 103.8209
v 1747.433 209.354 103.8209
v 1747.493 209.304 103.798
v 1747.444 209.304 103.7885
v 1747.493 209.354 103.798
v 1747.444 209.354 103.7885
v 1747.453 209.304 103.7394
v 1747.453 209.354 103.7394
v 1747.503 209.304 103.7489
v 1747.503 209.354 103.7489
v 1748.143 209.304 104.01
v 1748.094 209.304 104.0005
v 1748.143 209.354 104.01
v 1748.094 209.354 104.0005
v 1748.103 209.304 103.9514
v 1748.103 209.354 103.9514
v 1748.152 209.304 103.9609
v 1748.152 209.354 103.9609
v 1747.524 209.304 103.709
v 1747.475 209.304 103.6995
v 1747.524 209.354 103.709
v 1747.475 209.354 103.6995
v 1747.484 209.304 103.6504
v 1747.484 209.354 103.6504
v 1747.534 209.304 103.6599
v 1747.534 209.354 103.6599
v 1748.444 209.304 104.209
v 1748.395 209.304 104.1995
v 1748.444 209.354 104.209
v 1748.395 209.354 104.1995
v 1748.404 209.304 104.1504
v 1748.404 209.354 104.1504
v 1748.453 209.304 104.1599
v 1748.453 209.354 104.1599
v 1747.305 209.304 103.667
v 1747.256 209.304 103.6575
v 1747.305 209.354 103.667
v 1747.256 209.354 103.6575
v 1747.266 209.304 103.6084
v 1747.266 209.354 103.6084
v 1747.315 209.304 103.6179
v 1747.315 209.354 103.6179
v 1747.951 209.304 103.973
v 1747.902 209.304 103.9635
v 1747.951 209.354 103.973
v 1747.902 209.354 103.9635
v 1747.911 209.304 103.9144
v 1747.911 209.354 103.9144
v 1747.961 209.304 103.9239
v 1747.961 209.354 103.9239
v 1747.951 209.304 103.887
v 1747.902 209.304 103.8775
v 1747.951 209.354 103.887
v 1747.902 209.354 103.8775
v 1747.911 209.304 103.8284
v 1747.911 209.354 103.8284
v 1747.961 209.304 103.8379
v 1747.961 209.354 103.8379
v 1747.847 209.304 103.953
v 1747.798 209.304 103.9435
v 1747.847 209.354 103.953
v 1747.798 209.354 103.9435
v 1747.807 209.304 103.8944
v 1747.807 209.354 103.8944
v 1747.857 209.304 103.9039
v 1747.857 209.354 103.9039
v 1748.141 209.304 104.097
v 1748.092 209.304 104.0875
v 1748.141 209.354 104.097
v 1748.092 209.354 104.0875
v 1748.101 209.304 104.0384
v 1748.101 209.354 104.0384
v 1748.151 209.304 104.0479
v 1748.151 209.354 104.0479
v 1748.537 209.304 104.227
v 1748.488 209.304 104.2175
v 1748.537 209.354 104.227
v 1748.488 209.354 104.2175
v 1748.497 209.304 104.1684
v 1748.497 209.354 104.1684
v 1748.547 209.304 104.1779
v 1748.547 209.354 104.1779
v 1748.239 209.304 104.029
v 1748.19 209.304 104.0195
v 1748.239 209.354 104.029
v 1748.19 209.354 104.0195
v 1748.199 209.304 103.9704
v 1748.199 209.354 103.9704
v 1748.249 209.304 103.9799
v 1748.249 209.354 103.9799

vt 0 0
vt -1 0
vt 0 1
vt -1 1
vt 1 0
vt 1 1
vt 0.9999906 4.887581E-05
vt -1.966953E-05 -0.999899
vt 1.000251 -0.9999512
vt -4.708767E-06 -1.000024
vt -1.000376 -0.9999268
vt -0.9999661 0.0001740456
vt -0.9999994 1
vt 0.9999999 1
vt -0.1653081 -0.03213233
vt 1.111308 -0.5726352
vt -0.1113076 -0.4273648
vt 1.165308 -0.9678677
vt 0.1113078 -0.4273649
vt -1.165308 -0.9678677
vt 0.1653083 -0.0321323
vt -1.111308 -0.5726351
vt 0.03730869 0.007256448
vt 0.9936792 0.0324977
vt 0.006320834 -1.032498
vt 0.9626913 -1.007257
vt -0.006320715 -1.032497
vt -0.962691 -1.007257
vt -0.03730899 0.007256508
vt -0.9936793 0.03249741
vt -1.5 0
vt 5.960464E-08 0.15
vt -1.5 0.15
vt -0.55 0
vt -0.55 0.15
vt 1.5 0
vt 1.5 0.15
vt 0.55 0
vt 0.55 0.15
vt 1.499999 3.397465E-06
vt 5.960464E-07 -0.5500034
vt 1.500088 -0.5499828
vt 2.264977E-06 -0.5499883
vt -1.50008 -0.5499843

vn -0.1907716 0 0.9816344
vn -0.9817026 0 -0.1904204
vn 0.1909187 0 -0.9816059
vn 0.9816971 0 0.190449
vn 0 1 0
vn 0 -1 0
vn -0.9815465 0 -0.1912236
vn 0.9815465 0 0.1912236
vn -0.9816566 0 -0.1906576
vn 0.9816151 0 0.1908715

g Keyboard-Merged
usemtl ProBuilderDefault
f 3/3/1 4/4/1 2/2/1 1/1/1
f 4/3/2 6/4/2 5/2/2 2/1/2
f 6/6/3 8/3/3 7/1/3 5/5/3
f 8/6/4 3/3/4 1/1/4 7/5/4
f 8/8/5 6/9/5 4/7/5 3/1/5
f 1/1/6 2/12/6 5/11/6 7/10/6
f 11/3/1 12/13/1 10/12/1 9/1/1
f 12/3/2 14/4/2 13/2/2 10/1/2
f 14/6/3 16/3/3 15/1/3 13/5/3
f 16/6/4 11/3/4 9/1/4 15/5/4
f 16/8/5 14/9/5 12/7/5 11/1/5
f 9/1/6 10/12/6 13/11/6 15/10/6
f 19/3/1 20/4/1 18/2/1 17/1/1
f 20/3/2 22/13/2 21/12/2 18/1/2
f 22/6/3 24/3/3 23/1/3 21/5/3
f 24/6/4 19/3/4 17/1/4 23/5/4
f 24/8/5 22/9/5 20/7/5 19/1/5
f 17/1/6 18/12/6 21/11/6 23/10/6
f 27/3/1 28/13/1 26/12/1 25/1/1
f 28/3/2 30/4/2 29/2/2 26/1/2
f 30/6/3 32/3/3 31/1/3 29/5/3
f 32/6/4 27/3/4 25/1/4 31/5/4
f 32/8/5 30/9/5 28/7/5 27/1/5
f 25/1/6 26/12/6 29/11/6 31/10/6
f 35/3/1 36/13/1 34/12/1 33/1/1
f 36/3/2 38/4/2 37/2/2 34/1/2
f 38/6/3 40/3/3 39/1/3 37/5/3
f 40/6/4 35/3/4 33/1/4 39/5/4
f 40/8/5 38/9/5 36/7/5 35/1/5
f 33/1/6 34/12/6 37/11/6 39/10/6
f 43/3/1 44/4/1 42/2/1 41/1/1
f 44/3/2 46/4/2 45/2/2 42/1/2
f 46/6/3 48/3/3 47/1/3 45/5/3
f 48/14/4 43/3/4 41/1/4 47/7/4
f 48/8/5 46/9/5 44/7/5 43/1/5
f 41/1/6 42/12/6 45/11/6 47/10/6
f 51/3/1 52/4/1 50/2/1 49/1/1
f 52/3/7 54/4/7 53/2/7 50/1/7
f 54/6/3 56/3/3 55/1/3 53/5/3
f 56/6/8 51/3/8 49/1/8 55/5/8
f 56/17/5 54/18/5 52/16/5 51/15/5
f 49/21/6 50/22/6 53/20/6 55/19/6
f 59/3/1 60/13/1 58/12/1 57/1/1
f 60/3/2 62/13/2 61/12/2 58/1/2
f 62/6/3 64/3/3 63/1/3 61/5/3
f 64/6/4 59/3/4 57/1/4 63/5/4
f 64/8/5 62/9/5 60/7/5 59/1/5
f 57/1/6 58/12/6 61/11/6 63/10/6
f 67/3/1 68/13/1 66/12/1 65/1/1
f 68/3/2 70/13/2 69/12/2 66/1/2
f 70/14/3 72/3/3 71/1/3 69/7/3
f 72/6/4 67/3/4 65/1/4 71/5/4
f 72/8/5 70/9/5 68/7/5 67/1/5
f 65/1/6 66/12/6 69/11/6 71/10/6
f 75/3/1 76/4/1 74/2/1 73/1/1
f 76/3/2 78/4/2 77/2/2 74/1/2
f 78/6/3 80/3/3 79/1/3 77/5/3
f 80/6/4 75/3/4 73/1/4 79/5/4
f 80/8/5 78/9/5 76/7/5 75/1/5
f 73/1/6 74/12/6 77/11/6 79/10/6
f 83/3/1 84/13/1 82/12/1 81/1/1
f 84/3/2 86/4/2 85/2/2 82/1/2
f 86/6/3 88/3/3 87/1/3 85/5/3
f 88/6/4 83/3/4 81/1/4 87/5/4
f 88/8/5 86/9/5 84/7/5 83/1/5
f 81/1/6 82/12/6 85/11/6 87/10/6
f 91/3/1 92/13/1 90/12/1 89/1/1
f 92/3/2 94/4/2 93/2/2 90/1/2
f 94/14/3 96/3/3 95/1/3 93/7/3
f 96/6/4 91/3/4 89/1/4 95/5/4
f 96/8/5 94/9/5 92/7/5 91/1/5
f 89/1/6 90/12/6 93/11/6 95/10/6
f 99/3/1 100/4/1 98/2/1 97/1/1
f 100/3/2 102/13/2 101/12/2 98/1/2
f 102/6/3 104/3/3 103/1/3 101/5/3
f 104/6/4 99/3/4 97/1/4 103/5/4
f 104/8/5 102/9/5 100/7/5 99/1/5
f 97/1/6 98/12/6 101/11/6 103/10/6
f 107/3/1 108/13/1 106/12/1 105/1/1
f 108/3/2 110/4/2 109/2/2 106/1/2
f 110/14/3 112/3/3 111/1/3 109/7/3
f 112/6/4 107/3/4 105/1/4 111/5/4
f 112/8/5 110/9/5 108/7/5 107/1/5
f 105/1/6 106/12/6 109/11/6 111/10/6
f 115/3/1 116/4/1 114/2/1 113/1/1
f 116/3/2 118/4/2 117/2/2 114/1/2
f 118/14/3 120/3/3 119/1/3 117/7/3
f 120/6/4 115/3/4 113/1/4 119/5/4
f 120/8/5 118/9/5 116/7/5 115/1/5
f 113/1/6 114/12/6 117/11/6 119/10/6
f 123/3/1 124/4/1 122/2/1 121/1/1
f 124/3/2 126/4/2 125/2/2 122/1/2
f 126/6/3 128/3/3 127/1/3 125/5/3
f 128/6/4 123/3/4 121/1/4 127/5/4
f 128/25/5 126/26/5 124/24/5 123/23/5
f 121/29/6 122/30/6 125/28/6 127/27/6
f 131/3/1 132/4/1 130/2/1 129/1/1
f 132/3/2 134/13/2 133/12/2 130/1/2
f 134/6/3 136/3/3 135/1/3 133/5/3
f 136/6/4 131/3/4 129/1/4 135/5/4
f 136/8/5 134/9/5 132/7/5 131/1/5
f 129/1/6 130/12/6 133/11/6 135/10/6
f 139/3/1 140/4/1 138/2/1 137/1/1
f 140/3/2 142/13/2 141/12/2 138/1/2
f 142/6/3 144/3/3 143/1/3 141/5/3
f 144/6/4 139/3/4 137/1/4 143/5/4
f 144/8/5 142/9/5 140/7/5 139/1/5
f 137/1/6 138/12/6 141/11/6 143/10/6
f 147/32/1 148/33/1 146/31/1 145/1/1
f 148/32/9 150/35/9 149/34/9 146/1/9
f 150/37/3 152/32/3 151/1/3 149/36/3
f 152/39/10 147/32/10 145/1/10 151/38/10
f 152/41/5 150/42/5 148/40/5 147/1/5
f 145/1/6 146/31/6 149/44/6 151/43/6
f 155/3/1 156/13/1 154/12/1 153/1/1
f 156/3/2 158/4/2 157/2/2 154/1/2
f 158/6/3 160/3/3 159/1/3 157/5/3
f 160/6/4 155/3/4 153/1/4 159/5/4
f 160/8/5 158/9/5 156/7/5 155/1/5
f 153/1/6 154/12/6 157/11/6 159/10/6
f 163/3/1 164/4/1 162/2/1 161/1/1
f 164/3/2 166/13/2 165/12/2 162/1/2
f 166/6/3 168/3/3 167/1/3 165/5/3
f 168/6/4 163/3/4 161/1/4 167/5/4
f 168/8/5 166/9/5 164/7/5 163/1/5
f 161/1/6 162/12/6 165/11/6 167/10/6
f 171/3/1 172/4/1 170/2/1 169/1/1
f 172/3/2 174/13/2 173/12/2 170/1/2
f 174/6/3 176/3/3 175/1/3 173/5/3
f 176/6/4 171/3/4 169/1/4 175/5/4
f 176/8/5 174/9/5 172/7/5 171/1/5
f 169/1/6 170/12/6 173/11/6 175/10/6
f 179/3/1 180/4/1 178/2/1 177/1/1
f 180/3/2 182/13/2 181/12/2 178/1/2
f 182/6/3 184/3/3 183/1/3 181/5/3
f 184/6/4 179/3/4 177/1/4 183/5/4
f 184/8/5 182/9/5 180/7/5 179/1/5
f 177/1/6 178/12/6 181/11/6 183/10/6
f 187/3/1 188/13/1 186/12/1 185/1/1
f 188/3/2 190/4/2 189/2/2 186/1/2
f 190/6/3 192/3/3 191/1/3 189/5/3
f 192/6/4 187/3/4 185/1/4 191/5/4
f 192/8/5 190/9/5 188/7/5 187/1/5
f 185/1/6 186/12/6 189/11/6 191/10/6
f 195/3/1 196/13/1 194/12/1 193/1/1
f 196/3/2 198/13/2 197/12/2 194/1/2
f 198/6/3 200/3/3 199/1/3 197/5/3
f 200/14/4 195/3/4 193/1/4 199/7/4
f 200/8/5 198/9/5 196/7/5 195/1/5
f 193/1/6 194/12/6 197/11/6 199/10/6
f 203/3/1 204/4/1 202/2/1 201/1/1
f 204/3/2 206/13/2 205/12/2 202/1/2
f 206/6/3 208/3/3 207/1/3 205/5/3
f 208/14/4 203/3/4 201/1/4 207/7/4
f 208/8/5 206/9/5 204/7/5 203/1/5
f 201/1/6 202/12/6 205/11/6 207/10/6
f 211/3/1 212/4/1 210/2/1 209/1/1
f 212/3/2 214/4/2 213/2/2 210/1/2
f 214/6/3 216/3/3 215/1/3 213/5/3
f 216/6/4 211/3/4 209/1/4 215/5/4
f 216/8/5 214/9/5 212/7/5 211/1/5
f 209/1/6 210/12/6 213/11/6 215/10/6
f 219/3/1 220/4/1 218/2/1 217/1/1
f 220/3/2 222/4/2 221/2/2 218/1/2
f 222/6/3 224/3/3 223/1/3 221/5/3
f 224/14/4 219/3/4 217/1/4 223/7/4
f 224/8/5 222/9/5 220/7/5 219/1/5
f 217/1/6 218/12/6 221/11/6 223/10/6
f 227/3/1 228/4/1 226/2/1 225/1/1
f 228/3/2 230/4/2 229/2/2 226/1/2
f 230/6/3 232/3/3 231/1/3 229/5/3
f 232/6/4 227/3/4 225/1/4 231/5/4
f 232/8/5 230/9/5 228/7/5 227/1/5
f 225/1/6 226/12/6 229/11/6 231/10/6
f 235/3/1 236/4/1 234/2/1 233/1/1
f 236/3/2 238/4/2 237/2/2 234/1/2
f 238/14/3 240/3/3 239/1/3 237/7/3
f 240/6/4 235/3/4 233/1/4 239/5/4
f 240/8/5 238/9/5 236/7/5 235/1/5
f 233/1/6 234/12/6 237/11/6 239/10/6
f 243/3/1 244/13/1 242/12/1 241/1/1
f 244/3/2 246/4/2 245/2/2 242/1/2
f 246/6/3 248/3/3 247/1/3 245/5/3
f 248/6/4 243/3/4 241/1/4 247/5/4
f 248/8/5 246/9/5 244/7/5 243/1/5
f 241/1/6 242/12/6 245/11/6 247/10/6
f 251/3/1 252/4/1 250/2/1 249/1/1
f 252/3/2 254/4/2 253/2/2 250/1/2
f 254/6/3 256/3/3 255/1/3 253/5/3
f 256/6/4 251/3/4 249/1/4 255/5/4
f 256/8/5 254/9/5 252/7/5 251/1/5
f 249/1/6 250/12/6 253/11/6 255/10/6
f 259/3/1 260/4/1 258/2/1 257/1/1
f 260/3/2 262/4/2 261/2/2 258/1/2
f 262/14/3 264/3/3 263/1/3 261/7/3
f 264/6/4 259/3/4 257/1/4 263/5/4
f 264/8/5 262/9/5 260/7/5 259/1/5
f 257/1/6 258/12/6 261/11/6 263/10/6
f 267/3/1 268/4/1 266/2/1 265/1/1
f 268/3/2 270/13/2 269/12/2 266/1/2
f 270/6/3 272/3/3 271/1/3 269/5/3
f 272/14/4 267/3/4 265/1/4 271/7/4
f 272/8/5 270/9/5 268/7/5 267/1/5
f 265/1/6 266/12/6 269/11/6 271/10/6
f 275/3/1 276/4/1 274/2/1 273/1/1
f 276/3/2 278/4/2 277/2/2 274/1/2
f 278/6/3 280/3/3 279/1/3 277/5/3
f 280/6/4 275/3/4 273/1/4 279/5/4
f 280/8/5 278/9/5 276/7/5 275/1/5
f 273/1/6 274/12/6 277/11/6 279/10/6
f 171/3/1 172/4/1 170/2/1 169/1/1
f 172/3/2 174/13/2 173/12/2 170/1/2
f 174/6/3 176/3/3 175/1/3 173/5/3
f 176/6/4 171/3/4 169/1/4 175/5/4
f 176/8/5 174/9/5 172/7/5 171/1/5
f 169/1/6 170/12/6 173/11/6 175/10/6
f 283/3/1 284/13/1 282/12/1 281/1/1
f 284/3/2 286/4/2 285/2/2 282/1/2
f 286/6/3 288/3/3 287/1/3 285/5/3
f 288/6/4 283/3/4 281/1/4 287/5/4
f 288/8/5 286/9/5 284/7/5 283/1/5
f 281/1/6 282/12/6 285/11/6 287/10/6
f 291/3/1 292/4/1 290/2/1 289/1/1
f 292/3/2 294/4/2 293/2/2 290/1/2
f 294/6/3 296/3/3 295/1/3 293/5/3
f 296/6/4 291/3/4 289/1/4 295/5/4
f 296/8/5 294/9/5 292/7/5 291/1/5
f 289/1/6 290/12/6 293/11/6 295/10/6
f 299/3/1 300/4/1 298/2/1 297/1/1
f 300/3/2 302/4/2 301/2/2 298/1/2
f 302/6/3 304/3/3 303/1/3 301/5/3
f 304/6/4 299/3/4 297/1/4 303/5/4
f 304/8/5 302/9/5 300/7/5 299/1/5
f 297/1/6 298/12/6 301/11/6 303/10/6

