# ProBuilder 4.0.4
# https://unity3d.com/unity/features/worldbuilding/probuilder
# 27/04/2019 19:08:06

mtllib ./Laptop-Merged.mtl
o Laptop-Merged

g Laptop-Merged
v 1723.023 212.8045 109.0827
v 1722.973 212.8045 109.0827
v 1723.023 213.7222 108.6652
v 1722.973 213.7222 108.6652
v 1722.973 212.8017 109.073
v 1722.973 213.7194 108.6555
v 1723.023 212.8017 109.073
v 1723.023 213.7194 108.6555
v 1723.019 212.789 109.026
v 1721.519 212.789 109.026
v 1723.019 212.8031 109.0744
v 1721.519 212.8031 109.0744
v 1721.519 213.7067 108.6085
v 1721.519 213.7208 108.6568
v 1723.019 213.7067 108.6085
v 1723.019 213.7208 108.6568
v 1723.019 212.775 110.033
v 1721.519 212.775 110.033
v 1723.019 212.855 110.033
v 1721.519 212.855 110.033
v 1721.519 212.775 109.033
v 1721.519 212.855 109.033
v 1723.019 212.775 109.033
v 1723.019 212.855 109.033
v 1721.567 212.809 109.083
v 1721.517 212.809 109.083
v 1721.567 213.7267 108.6655
v 1721.517 213.7267 108.6655
v 1721.517 212.8062 109.0733
v 1721.517 213.7239 108.6558
v 1721.567 212.8062 109.0733
v 1721.567 213.7239 108.6558
v 1721.518 213.704 108.76
v 1721.518 213.7499 108.7391
v 1723.018 213.704 108.76
v 1723.018 213.7499 108.7391
v 1721.518 213.7471 108.7295
v 1723.018 213.7471 108.7295
v 1721.518 213.7012 108.7503
v 1723.018 213.7012 108.7503

vt 0 0
vt -1 0
vt 0 1
vt -1 1
vt -0.07739997 -0.2652516
vt -0.1054235 -0.2610357
vt -0.8945978 1.261042
vt -0.9226 1.265252
vt 1 0
vt 1 1
vt 0.1054235 -0.2610359
vt 0.07739991 -0.2652516
vt 0.9226001 1.265252
vt 0.8945978 1.261042
vt 0 -1
vt 1 -1
vt -1 -1
vt -1.5 0
vt 0 0.09999999
vt -1.5 0.09999999
vt 0.01598173 0.03512746
vt -1.024602 0.01119292
vt 0.0246017 0.08880708
vt -1.015978 0.0648801
vt 1.5 0
vt 1.5 0.1
vt 0 0.1
vt 1.024602 0.01119289
vt -0.01598179 0.03512749
vt 1.015978 0.06488007
vt -0.0246017 0.08880711
vt -5.960464E-08 -0.9999999
vt 1.5 -1
vt -1.5 -0.9999999
vt -1.5 0.1
vt -1 0.1
vt 1 0.1
vt -1.5 -1
vt -1 -0.9999998
vt 1 0.9999999
vt -0.3070617 -0.1396942
vt 1.203256 -0.4467764
vt -0.2032558 -0.5532236
vt 1.307439 -0.860134
vt 0.2032294 -0.553133
vt -1.307356 -0.8602182
vt 0.3069787 -0.1396101
vt -1.203229 -0.446867

vn 0 0.4141199 0.9102224
vn -1 0 0
vn 0 -0.4141137 -0.9102252
vn 1 0 0
vn 0 0.9599066 -0.28032
vn 0 -0.9599661 0.2801163
vn 0 -0.9601051 0.2796393
vn 0 0.960117 -0.2795987
vn 0 0 1
vn 0 0 -1
vn 0 1 0
vn 0 -1 0
vn 0 0.9603724 -0.2787201
vn 0 -0.4139853 -0.9102836

g Laptop-Merged
usemtl ProBuilderDefault
f 3/3/1 4/4/1 2/2/1 1/1/1
f 4/7/2 6/8/2 5/6/2 2/5/2
f 6/10/3 8/3/3 7/1/3 5/9/3
f 8/13/4 3/14/4 1/12/4 7/11/4
f 8/15/5 6/16/5 4/9/5 3/1/5
f 1/1/6 2/2/6 5/17/6 7/15/6
f 11/19/7 12/20/7 10/18/7 9/1/7
f 12/23/2 14/24/2 13/22/2 10/21/2
f 14/26/8 16/27/8 15/1/8 13/25/8
f 16/30/4 11/31/4 9/29/4 15/28/4
f 16/32/1 14/33/1 12/25/1 11/1/1
f 9/1/3 10/18/3 13/34/3 15/15/3
f 19/27/9 20/35/9 18/18/9 17/1/9
f 20/27/2 22/36/2 21/2/2 18/1/2
f 22/26/10 24/27/10 23/1/10 21/25/10
f 24/37/4 19/27/4 17/1/4 23/9/4
f 24/15/11 22/33/11 20/25/11 19/1/11
f 17/1/12 18/18/12 21/38/12 23/15/12
f 27/3/1 28/4/1 26/2/1 25/1/1
f 28/7/2 30/8/2 29/6/2 26/5/2
f 30/10/3 32/3/3 31/1/3 29/9/3
f 32/13/4 27/14/4 25/12/4 31/11/4
f 32/15/5 30/16/5 28/9/5 27/1/5
f 25/1/6 26/2/6 29/39/6 31/32/6
f 35/3/1 36/4/1 34/2/1 33/1/1
f 36/3/13 38/4/13 37/2/13 34/1/13
f 38/40/14 40/3/14 39/1/14 37/9/14
f 40/10/6 35/3/6 33/1/6 39/9/6
f 40/43/4 38/44/4 36/42/4 35/41/4
f 33/47/2 34/48/2 37/46/2 39/45/2

