# ProBuilder 4.0.4
# https://unity3d.com/unity/features/worldbuilding/probuilder
# 27/04/2019 19:06:57

mtllib ./Pile_of_paper.mtl
o Pile of paper

g Pile of paper
v 1724.917 212.749 109.001
v 1724.317 212.749 109.001
v 1724.917 213.249 109.001
v 1724.317 213.249 109.001
v 1724.317 212.749 108.201
v 1724.317 213.249 108.201
v 1724.917 212.749 108.201
v 1724.917 213.249 108.201

vt 0 0
vt -1 0
vt 0 1
vt -1 1
vt 1 0
vt 1 1
vt 0 -1
vt 1 -1
vt -1 -1

vn 0 0 0.8
vn -0.6 0 0
vn 0 0 -0.8
vn 0.6 0 0
vn 0 0.5 0
vn 0 -0.5 0

g Pile of paper
usemtl PileDeFeuille
f 3/3/1 4/4/1 2/2/1 1/1/1
f 4/3/2 6/4/2 5/2/2 2/1/2
f 6/6/3 8/3/3 7/1/3 5/5/3
f 8/6/4 3/3/4 1/1/4 7/5/4
f 8/7/5 6/8/5 4/5/5 3/1/5
f 1/1/6 2/2/6 5/9/6 7/7/6

