# ProBuilder 4.0.4
# https://unity3d.com/unity/features/worldbuilding/probuilder
# 27/04/2019 19:08:01

mtllib ./Printer-Merged.mtl
o Printer-Merged

g Printer-Merged
v 1680.319 212.0421 105.3139
v 1680.219 212.0421 105.3139
v 1680.319 212.0414 105.3139
v 1680.219 212.1084 105.3139
v 1680.219 212.0421 105.2139
v 1680.219 212.1084 105.2139
v 1680.319 212.0421 105.2139
v 1680.319 212.0414 105.2139
v 1681.219 211.997 106.71
v 1680.219 211.997 106.71
v 1681.219 212.047 106.71
v 1680.219 212.047 106.71
v 1680.219 211.997 105.21
v 1680.219 212.047 105.21
v 1681.219 211.997 105.21
v 1681.219 212.047 105.21
v 1682.292 213.219 106.431
v 1681.715 212.4026 106.431
v 1682.251 213.2479 106.431
v 1681.674 212.4315 106.431
v 1681.715 212.4026 105.431
v 1681.674 212.4315 105.431
v 1682.292 213.219 105.431
v 1682.251 213.2479 105.431
v 1682.083 211.9655 106.8499
v 1681.1 211.9651 106.8499
v 1682.083 212.6455 106.8499
v 1680.896 212.6459 106.8499
v 1681.1 211.9651 105.0499
v 1682.083 211.9655 105.0499
v 1680.896 212.6459 105.0499
v 1682.083 212.6455 105.0499
v 1682.093 211.9655 105.0599
v 1682.093 211.9655 106.8399
v 1682.093 212.6455 105.0599
v 1682.093 212.6455 106.8399
v 1681.69 212.4953 106.5342
v 1681.417 212.4953 106.5342
v 1681.69 212.4953 105.3655
v 1681.417 212.4953 105.3655
v 1682.083 211.9555 105.0599
v 1681.103 211.9555 105.0599
v 1682.083 211.9555 106.8399
v 1681.103 211.9555 106.8399
v 1682.083 212.6555 106.8399
v 1682.083 212.6555 105.0599
v 1681.09 211.9651 106.8399
v 1680.886 212.6459 106.8399
v 1680.894 212.6555 106.8399
v 1680.886 212.6459 105.0599
v 1680.894 212.6555 105.0599
v 1681.09 211.9651 105.0599
v 1681.879 212.6556 106.5342
v 1681.098 212.6556 106.5342
v 1681.879 212.6556 105.3655
v 1681.098 212.6556 105.3655
v 1682.069 212.6557 106.5342
v 1681.288 212.6557 106.5342
v 1682.069 212.6557 105.3655
v 1681.288 212.6557 105.3655
v 1681.815 212.6558 106.5342
v 1681.542 212.6558 106.5342
v 1681.815 212.6558 105.3655
v 1681.542 212.6558 105.3655
v 1682.074 212.0712 106.5562
v 1682.033 212.2074 106.5562
v 1682.033 212.2074 105.3436
v 1682.074 212.0712 105.3436
v 1681.06 212.0713 106.5562
v 1681.06 212.0713 105.3436
v 1681.019 212.2074 105.3436
v 1681.019 212.2074 106.5562
v 1681.337 212.0712 106.5562
v 1681.337 212.0712 105.3436
v 1681.296 212.2074 105.3436
v 1681.296 212.2074 106.5562
v 1680.319 212.0421 106.707
v 1680.219 212.0421 106.707
v 1680.319 212.0414 106.707
v 1680.219 212.1084 106.707
v 1680.219 212.0421 106.607
v 1680.219 212.1084 106.607
v 1680.319 212.0421 106.607
v 1680.319 212.0414 106.607

vt -3.72529E-09 0
vt 0.1 0
vt -3.72529E-09 -0.0007324219
vt 0.1 0.0663147
vt -0.0999999 -3.681704E-05
vt 0 0.06627788
vt -0.0999999 0.06627788
vt -0.0999999 -0.0007324219
vt 0.1199683 0
vt -0.0004079442 -0.09999847
vt 0.1199683 -0.09999847
vt -0.1 -0.0999999
vt -0.1 0
vt -1 0
vt 0 1
vt -1 1
vt 1 0
vt 1 1
vt 0 -1
vt 1 -1
vt -1 -1
vt 0.4326055 0.3060307
vt -1.418389 0.591435
vt 0.4183888 0.408565
vt -1.432585 0.6939839
vt 1.418389 0.5914351
vt -0.4326055 0.3060306
vt 1.432585 0.693984
vt -0.4183888 0.4085649
vt -0.01 0.01
vt -0.9928669 0.009584471
vt -0.01 0.69
vt -1.196606 0.6904167
vt 0.9928669 0.009592441
vt 0.01 0.01000797
vt 1.196606 0.6904212
vt 0.01 0.690008
vt 1.79 0.01
vt 0.01 0.01
vt 1.79 0.69
vt 0.01 0.69
vt 0.009998241 -0.01
vt 1.199471 -0.01
vt 0.009998241 -1.79
vt 1.199471 -1.790003
vt -0.01 -1.79
vt -0.99 -1.79
vt -0.01 -0.01
vt -0.99 -0.01
vt 0.007071068 -1.79
vt 0.007071068 -0.01
vt -0.007071068 -1.79
vt -0.007071068 -0.01
vt 1.279863 0.01
vt 1.279863 0.69
vt 1.265721 0.01
vt 1.265721 0.69
vt -0.007071068 0.69
vt -0.007071068 0.01
vt 0.007071068 0.69
vt 0.007071068 0.01
vt 0.4879035 -0.01
vt 0.4879035 -1.79
vt 0.5020456 -0.01
vt 0.5020456 -1.79
vt -0.009999999 0.007068078
vt -0.9928668 0.006480432
vt -0.009995772 -0.007074056
vt -0.9899957 -0.007367023
vt -0.702107 0.1546984
vt -0.8461812 0.8506041
vt -0.7162491 0.1546941
vt -0.8603233 0.8506039
vt 1.196848 -0.477306
vt 0.0102423 -0.477306
vt 1.199718 -0.4911539
vt 0.01024582 -0.4914449
vt -1.790003 -0.1668184
vt -0.01 -0.1668184
vt -1.790003 -0.1548743
vt -0.01 -0.1548743
vt 0.01063156 -0.7848858
vt 1.197237 -0.7843015
vt 0.01062805 -0.7707437
vt 1.200101 -0.770453
vt -0.9928628 -1.306349
vt -0.009995772 -1.306349
vt -0.9899999 -1.292496
vt -0.009999999 -1.29221
vt -0.8101075 -0.01
vt -0.8101075 -1.79
vt -0.7940658 -0.01
vt -0.7940658 -1.79
vt -0.5564622 0.4181888
vt -0.4123901 1.114099
vt -0.5706043 0.4181931
vt -0.4265322 1.114096
vt 1.26572 0.7389295
vt 1.272792 0.726682
vt 1.279863 0.7389295
vt 0.007071068 0.004082483
vt 0 -0.008164966
vt -0.007071068 0.004082483
vt 1.279863 -0.1673825
vt 1.26572 -0.1673825
vt 1.272792 -0.1551351
vt 0.4949745 -0.2776089
vt 0.4879034 -0.2898563
vt 0.5020456 -0.2898563
vt -0.8020892 -0.300207
vt -0.7940658 -0.3118562
vt -0.8101075 -0.3118562
vt -0.8461276 0.2167371
vt -0.8602698 0.2167371
vt -0.8552259 0.227564
vt -0.4122514 -0.3761214
vt -0.417296 -0.3652948
vt -0.4263935 -0.3761253
vt -0.8020892 -1.24495
vt -0.7940657 -1.233301
vt -0.8101075 -1.233301
vt 0.009998211 -0.01016896
vt 1.199471 -0.01016896
vt 0.2142316 -0.3158275
vt 0.9952375 -0.3158275
vt 0.01025107 -1.79
vt 0.01025107 -0.01
vt 0.2144845 -1.484344
vt 0.9949777 -0.3156586
vt 0.9949777 -1.484344
vt 1.199471 -1.789829
vt 0.9952375 -1.484171
vt -0.2142334 0.7000732
vt -0.9952393 0.7000732
vt -0.02404785 0.7001801
vt -0.8050537 0.7001801
vt -0.2138402 -1.484344
vt -0.2138402 -0.3156586
vt -0.02365462 -1.484344
vt -0.02365462 -0.3156586
vt 0.8046604 -0.3156586
vt 0.8046604 -1.484344
vt 0.9952393 0.7000732
vt 0.2142334 0.7000732
vt 0.8050537 0.7001801
vt 0.02404785 0.7001801
vt -0.2779541 0.7002869
vt -0.5511475 0.7002869
vt 0.0243424 -1.484344
vt 0.0243424 -0.3156586
vt 0.2782487 -1.484344
vt 0.2782487 -0.3156586
vt 0.5508528 -0.3156586
vt 0.5508528 -1.484344
vt 0.5511475 0.7002869
vt 0.2779541 0.7002869
vt 0.4033203 0.5397797
vt 0.6765137 0.5397797
vt -1.484344 0.3807979
vt -0.3156586 0.3807979
vt -1.484344 0.1771334
vt -0.3156586 0.1771334
vt 0.3156586 0.2126331
vt 1.484344 0.2126331
vt 0.3156586 0.008968495
vt 1.484344 0.008968495
vt -0.6765137 0.5397797
vt -0.4033203 0.5397797
vt 106.5562 -279.3017
vt 106.5562 -279.1596
vt 105.3436 -279.1596
vt 105.3436 -279.3017
vt 106.8399 -257.1783
vt 105.0599 -257.1783
vt 106.5562 -257.0679
vt 105.3436 -257.0679
vt 114.0177 -278.9575
vt 114.0166 -278.2468
vt 114.3012 -278.8467
vt 114.301 -278.7045
vt 97.87471 -278.5708
vt 97.87362 -279.2815
vt 97.5903 -279.0286
vt 97.59009 -279.1707
vt 105.0599 -283.7059
vt 106.8399 -283.7059
vt 105.3436 -284.1641
vt 106.5562 -284.1641
vt -1680.977 106.5562
vt -1680.977 105.3436
vt -1681.254 106.5562
vt -1681.254 105.3436
vt 1681 212.0713
vt 1680.959 212.2074
vt 1681.277 212.0712
vt 1681.236 212.2074
vt -1680.959 212.2074
vt -1681 212.0713
vt -1681.236 212.2074
vt -1681.277 212.0712
vt 1680.936 105.3436
vt 1680.936 106.5562
vt 1681.213 105.3436
vt 1681.213 106.5562
vt -1681.268 106.5562
vt -1681.268 105.3436
vt -1682.005 106.5562
vt -1682.005 105.3436
vt 1682.014 212.0712
vt 1681.973 212.2074
vt -1681.973 212.2074
vt -1682.014 212.0712
vt 1681.227 105.3436
vt 1681.227 106.5562
vt 1681.964 105.3436
vt 1681.964 106.5562

vn 0 0 -1
vn 0 0 0
vn 0 0 1
vn -1 0 0
vn 0.5569798 0.8305261 0
vn 0 -1 0
vn 1 0 0
vn 0 1 0
vn -0.5780852 -0.8159765 0
vn 0.5778818 0.8161206 0
vn -0.8163737 0.577524 0
vn 0.8163788 -0.5775169 0
vn 0.7065672 -0.707646 0
vn 0.7068372 0 -0.7073763
vn 0.7068372 0 0.7073763
vn 0.7065672 0.707646 0
vn 0.0002964972 -0.7073765 0.7068369
vn 0.0001482486 -0.714734 0.6993173
vn 0 -0.7220914 0.6917977
vn -0.6955867 -0.2081507 0.6876281
vn -0.693553 -0.2076041 0.6898373
vn -0.6915191 -0.2070574 0.6920466
vn 0.0002507126 0.7221265 0.691761
vn 0.0001253563 0.7147515 0.699299
vn 0 0.7073765 0.7068369
vn -0.7993886 0.6008143 0
vn 0.0002455916 0.7073765 -0.7068369
vn 0.0001227958 0.714734 -0.6993173
vn 0 0.7220914 -0.6917977
vn 0.0003026464 -0.7220471 -0.6918439
vn 0.0001513232 -0.7147118 -0.6993405
vn 0 -0.7073765 -0.7068369
vn -0.5987788 -0.8009144 0
vn -0.6955687 -0.20827 -0.6876103
vn -0.6935528 -0.2076044 -0.6898373
vn -0.6915369 -0.2069388 -0.6920644
vn 0.5769099 -0.5777907 -0.57735
vn 0.5769099 -0.5777907 0.57735
vn 0.5769099 0.5777907 -0.57735
vn 0.5769099 0.5777907 0.57735
vn -0.5152745 -0.6892207 0.509379
vn -0.6242182 0.4691576 0.6246943
vn -0.6242182 0.4691576 -0.6246943
vn -0.5152745 -0.6892207 -0.509379
vn 0.0003735803 0.9999999 0
vn 0.0005616174 -0.9999999 0
vn -0.0005616174 0.9999999 0
vn -0.788096 0.6155525 0
vn 0.788096 -0.6155525 0
vn -0.9579798 -0.2868357 0
vn -0.9616595 -0.2742465 0
vn -0.9579656 -0.2868379 0.00510569
vn -0.9579656 -0.2868379 -0.005108776
vn -0.9570659 -0.2898706 0

g Printer-Merged
usemtl ProBuilderDefault
f 33/98/37 41/99/37 30/100/37
f 25/103/38 43/102/38 34/101/38
f 46/106/39 35/105/39 32/104/39
f 27/107/40 36/108/40 45/109/40
f 47/112/41 44/111/41 26/110/41
f 49/115/42 48/114/42 28/113/42
f 50/116/43 51/117/43 31/118/43
f 29/119/44 42/120/44 52/121/44
f 4/4/3 2/2/2 1/1/1
f 1/1/1 3/3/2 4/4/3
f 6/7/4 5/5/4 2/1/4
f 2/1/4 4/6/4 6/7/4
f 8/3/3 7/1/2 5/2/1
f 5/2/1 6/4/2 8/3/3
f 3/3/4 1/1/4 7/5/4
f 7/5/4 8/8/4 3/3/4
f 6/11/5 4/9/5 3/1/5
f 3/1/5 8/10/5 6/11/5
f 2/13/6 5/12/6 7/10/6
f 7/10/6 1/1/6 2/13/6
f 12/16/3 10/14/3 9/1/3
f 9/1/3 11/15/3 12/16/3
f 14/16/4 13/14/4 10/1/4
f 10/1/4 12/15/4 14/16/4
f 16/15/1 15/1/1 13/17/1
f 13/17/1 14/18/1 16/15/1
f 11/15/7 9/1/7 15/17/7
f 15/17/7 16/18/7 11/15/7
f 14/20/8 12/17/8 11/1/8
f 11/1/8 16/19/8 14/20/8
f 10/14/6 13/21/6 15/19/6
f 15/19/6 9/1/6 10/14/6
f 20/25/3 18/23/3 17/22/3
f 17/22/3 19/24/3 20/25/3
f 22/16/9 21/14/9 18/1/9
f 18/1/9 20/15/9 22/16/9
f 24/29/1 23/27/1 21/26/1
f 21/26/1 22/28/1 24/29/1
f 19/15/10 17/1/10 23/17/10
f 23/17/10 24/18/10 19/15/10
f 22/20/11 20/17/11 19/1/11
f 19/1/11 24/19/11 22/20/11
f 18/14/12 21/21/12 23/19/12
f 23/19/12 17/1/12 18/14/12
f 28/33/3 26/31/3 25/30/3
f 25/30/3 27/32/3 28/33/3
f 32/37/1 30/35/1 29/34/1
f 29/34/1 31/36/1 32/37/1
f 36/41/7 34/39/7 33/38/7
f 33/38/7 35/40/7 36/41/7
f 40/45/8 38/43/8 37/42/8
f 37/42/8 39/44/8 40/45/8
f 44/49/6 42/47/6 41/46/6
f 41/46/6 43/48/6 44/49/6
f 41/52/13 33/50/13 34/51/13
f 34/51/13 43/53/13 41/52/13
f 33/56/14 30/54/14 32/55/14
f 32/55/14 35/57/14 33/56/14
f 36/60/15 27/58/15 25/59/15
f 25/59/15 34/61/15 36/60/15
f 45/64/16 36/62/16 35/63/16
f 35/63/16 46/65/16 45/64/16
f 43/68/18 25/66/17 26/67/18
f 26/67/18 44/69/19 43/68/18
f 47/72/21 26/70/20 28/71/21
f 28/71/21 48/73/22 47/72/21
f 49/76/24 28/74/23 27/75/24
f 27/75/24 45/77/25 49/76/24
f 51/80/26 50/78/26 48/79/26
f 48/79/26 49/81/26 51/80/26
f 46/84/28 32/82/27 31/83/28
f 31/83/28 51/85/29 46/84/28
f 42/88/31 29/86/30 30/87/31
f 30/87/31 41/89/32 42/88/31
f 44/92/33 47/90/33 52/91/33
f 52/91/33 42/93/33 44/92/33
f 29/96/35 52/94/34 50/95/35
f 50/95/35 31/97/36 29/96/35
f 54/125/8 49/123/8 45/122/8
f 45/122/8 53/124/8 54/125/8
f 53/124/45 45/127/45 46/126/45
f 46/126/45 55/128/45 53/124/45
f 56/130/45 51/45/45 49/43/45
f 49/43/45 54/129/45 56/130/45
f 55/128/8 46/44/8 51/131/8
f 51/131/8 56/132/8 55/128/8
f 58/136/3 54/134/3 53/133/3
f 53/133/3 57/135/3 58/136/3
f 57/140/46 53/138/46 55/137/46
f 55/137/46 59/139/46 57/140/46
f 60/142/47 56/130/47 54/129/47
f 54/129/47 58/141/47 60/142/47
f 59/146/1 55/144/1 56/143/1
f 56/143/1 60/145/1 59/146/1
f 62/148/3 58/136/3 57/135/3
f 57/135/3 61/147/3 62/148/3
f 61/152/45 57/150/45 59/149/45
f 59/149/45 63/151/45 61/152/45
f 64/154/45 60/142/45 58/141/45
f 58/141/45 62/153/45 64/154/45
f 63/156/1 59/146/1 60/145/1
f 60/145/1 64/155/1 63/156/1
f 38/158/1 62/155/1 61/156/1
f 61/156/1 37/157/1 38/158/1
f 37/162/48 61/160/48 63/159/48
f 63/159/48 39/161/48 37/162/48
f 40/166/49 64/164/49 62/163/49
f 62/163/49 38/165/49 40/166/49
f 39/168/3 63/147/3 64/148/3
f 64/148/3 40/167/3 39/168/3
f 67/171/50 68/172/50 65/169/50
f 65/169/50 66/170/50 67/171/50
f 70/176/51 52/174/51 47/173/51
f 47/173/51 69/175/51 70/176/51
f 71/180/52 50/178/52 52/177/52
f 52/177/52 70/179/52 71/180/52
f 69/184/53 47/182/53 48/181/53
f 48/181/53 72/183/53 69/184/53
f 72/188/54 48/186/54 50/185/54
f 50/185/54 71/187/54 72/188/54
f 74/192/8 70/190/8 69/189/8
f 69/189/8 73/191/8 74/192/8
f 75/196/3 71/194/3 70/193/3
f 70/193/3 74/195/3 75/196/3
f 73/200/1 69/198/1 72/197/1
f 72/197/1 76/199/1 73/200/1
f 76/204/6 72/202/6 71/201/6
f 71/201/6 75/203/6 76/204/6
f 68/208/8 74/206/8 73/205/8
f 73/205/8 65/207/8 68/208/8
f 67/210/3 75/196/3 74/195/3
f 74/195/3 68/209/3 67/210/3
f 65/212/1 73/200/1 76/199/1
f 76/199/1 66/211/1 65/212/1
f 66/216/6 76/214/6 75/213/6
f 75/213/6 67/215/6 66/216/6
f 80/4/3 78/2/2 77/1/1
f 77/1/1 79/3/2 80/4/3
f 82/7/4 81/5/4 78/1/4
f 78/1/4 80/6/4 82/7/4
f 84/3/3 83/1/2 81/2/1
f 81/2/1 82/4/2 84/3/3
f 79/3/4 77/1/4 83/5/4
f 83/5/4 84/8/4 79/3/4
f 82/11/5 80/9/5 79/1/5
f 79/1/5 84/10/5 82/11/5
f 78/13/6 81/12/6 83/10/6
f 83/10/6 77/1/6 78/13/6

